<?xml version="1.0" encoding="UTF-8" standalone="no"?>
<!-- Created with Inkscape (http://www.inkscape.org/) -->

<svg
   xmlns:dc="http://purl.org/dc/elements/1.1/"
   xmlns:cc="http://creativecommons.org/ns#"
   xmlns:rdf="http://www.w3.org/1999/02/22-rdf-syntax-ns#"
   xmlns:svg="http://www.w3.org/2000/svg"
   xmlns="http://www.w3.org/2000/svg"
   xmlns:sodipodi="http://sodipodi.sourceforge.net/DTD/sodipodi-0.dtd"
   xmlns:inkscape="http://www.inkscape.org/namespaces/inkscape"
   width="100"
   height="100"
   viewBox="0 0 26.458333 26.458334"
   version="1.1"
   id="svg821"
   inkscape:version="0.92.3 (2405546, 2018-03-11)"
   sodipodi:docname="hand_open.svg">
  <defs
     id="defs815" />
  <sodipodi:namedview
     id="base"
     pagecolor="#ffffff"
     bordercolor="#666666"
     borderopacity="1.0"
     inkscape:pageopacity="0.0"
     inkscape:pageshadow="2"
     inkscape:zoom="7.2407734"
     inkscape:cx="19.01637"
     inkscape:cy="57.902287"
     inkscape:document-units="mm"
     inkscape:current-layer="layer1"
     showgrid="true"
     units="px"
     inkscape:window-width="1920"
     inkscape:window-height="1057"
     inkscape:window-x="-8"
     inkscape:window-y="-8"
     inkscape:window-maximized="1"
     inkscape:snap-grids="false"
     inkscape:snap-to-guides="false">
    <inkscape:grid
       type="xygrid"
       id="grid1366"
       spacingx="2.6458333"
       spacingy="2.6458333"
       color="#ff0000"
       opacity="0.1254902" />
  </sodipodi:namedview>
  <metadata
     id="metadata818">
    <rdf:RDF>
      <cc:Work
         rdf:about="">
        <dc:format>image/svg+xml</dc:format>
        <dc:type
           rdf:resource="http://purl.org/dc/dcmitype/StillImage" />
        <dc:title></dc:title>
      </cc:Work>
    </rdf:RDF>
  </metadata>
  <g
     inkscape:label="Layer 1"
     inkscape:groupmode="layer"
     id="layer1"
     transform="translate(0,-270.54165)">
    <path
       style="fill:#ffffff;stroke:#000000;stroke-width:0.465;stroke-linecap:round;stroke-linejoin:round;stroke-miterlimit:4;stroke-dasharray:none;stroke-opacity:1"
       d="m 7.7303284,277.05406 c 0,0 2.8778326,-0.92404 5.6069176,-1.03177 1.013754,-0.04 1.975485,0.37908 2.806889,0.50141 0.70159,-0.20222 0.931231,-0.47629 1.146386,-0.87308 l 1.067344,1.79148 c -0.240283,0.47451 -0.736418,1.04648 0.557923,0.93644 l 1.897544,3.18493 c -0.556865,0.0937 -1.291249,0.20311 -1.556354,0.49135 -1.739696,2.78274 -1.956344,4.86655 -2.850178,6.54079 -1.434289,0.55804 -1.505644,-0.0683 -1.873762,-0.76975 0.172029,-1.28096 0.609778,-2.16334 0.960243,-3.17665 -1.349303,1.41616 -2.721123,3.15609 -4.311809,4.16565 -0.974953,-0.0621 -1.5245576,-0.2065 -1.3441446,-1.32766 1.2437466,-1.90847 2.4429876,-2.89078 3.5365886,-4.11692 -1.583433,0.64555 -3.203405,1.63495 -4.7502973,1.93666 -0.787418,-0.0844 -1.5777803,-0.66221 -0.9866003,-1.79049 1.2577106,-0.86346 2.8988996,-1.41291 4.3483496,-2.11936 -1.303287,0.46284 -3.3444114,0.85823 -4.0925644,0.87697 -1.1693318,-0.51764 -1.3030319,-0.97202 -0.730815,-1.90012 0.329711,-0.58994 2.2812068,-0.90691 3.5079124,-1.42509 -1.8914546,0.20207 -2.6945926,0.064 -3.0328826,-0.21926 -0.967055,-1.12889 -0.214504,-1.27514 0.09331,-1.67553 z"
       id="path1379"
       inkscape:connector-curvature="0"
       sodipodi:nodetypes="cscccccccccccccccccccc" />
    <path
       style="fill:none;stroke:#000000;stroke-width:0.66500002;stroke-linecap:round;stroke-linejoin:round;stroke-miterlimit:4;stroke-dasharray:none;stroke-opacity:1"
       d="m 13.154672,278.87577 2.996342,-0.9866"
       id="path1381"
       inkscape:connector-curvature="0" />
    <path
       style="fill:none;stroke:#000000;stroke-width:0.66500002;stroke-linecap:round;stroke-linejoin:round;stroke-miterlimit:4;stroke-dasharray:none;stroke-opacity:1"
       d="m 14.03165,280.57492 2.996342,-0.9866"
       id="path1381-9"
       inkscape:connector-curvature="0" />
    <path
       style="fill:none;stroke:#000000;stroke-width:0.66500002;stroke-linecap:round;stroke-linejoin:round;stroke-miterlimit:4;stroke-dasharray:none;stroke-opacity:1"
       d="m 14.799006,282.25578 2.996342,-0.9866"
       id="path1381-96"
       inkscape:connector-curvature="0" />
  </g>
</svg>
